<svg width="49" height="48" viewBox="0 0 49 48" fill="none" xmlns="http://www.w3.org/2000/svg">
<mask id="mask0_439_480" style="mask-type:alpha" maskUnits="userSpaceOnUse" x="0" y="0" width="49" height="48">
<rect x="0.899902" width="48" height="48" fill="#D9D9D9"/>
</mask>
<g mask="url(#mask0_439_480)">
<path d="M24.8999 32C22.6999 32 20.8166 31.2167 19.2499 29.65C17.6832 28.0833 16.8999 26.2 16.8999 24C16.8999 21.8 17.6832 19.9167 19.2499 18.35C20.8166 16.7833 22.6999 16 24.8999 16C27.0999 16 28.9832 16.7833 30.5499 18.35C32.1166 19.9167 32.8999 21.8 32.8999 24C32.8999 26.2 32.1166 28.0833 30.5499 29.65C28.9832 31.2167 27.0999 32 24.8999 32ZM24.8999 28C25.9999 28 26.9416 27.6083 27.7249 26.825C28.5082 26.0417 28.8999 25.1 28.8999 24C28.8999 22.9 28.5082 21.9583 27.7249 21.175C26.9416 20.3917 25.9999 20 24.8999 20C23.7999 20 22.8582 20.3917 22.0749 21.175C21.2916 21.9583 20.8999 22.9 20.8999 24C20.8999 25.1 21.2916 26.0417 22.0749 26.825C22.8582 27.6083 23.7999 28 24.8999 28ZM10.8999 42C9.7999 42 8.85824 41.6083 8.0749 40.825C7.29157 40.0417 6.8999 39.1 6.8999 38V30H10.8999V38H18.8999V42H10.8999ZM30.8999 42V38H38.8999V30H42.8999V38C42.8999 39.1 42.5082 40.0417 41.7249 40.825C40.9416 41.6083 39.9999 42 38.8999 42H30.8999ZM6.8999 18V10C6.8999 8.9 7.29157 7.95833 8.0749 7.175C8.85824 6.39167 9.7999 6 10.8999 6H18.8999V10H10.8999V18H6.8999ZM38.8999 18V10H30.8999V6H38.8999C39.9999 6 40.9416 6.39167 41.7249 7.175C42.5082 7.95833 42.8999 8.9 42.8999 10V18H38.8999Z" fill="#EA7D42"/>
</g>
</svg>
