<svg width="49" height="48" viewBox="0 0 49 48" fill="none" xmlns="http://www.w3.org/2000/svg">
<mask id="mask0_439_2" style="mask-type:alpha" maskUnits="userSpaceOnUse" x="0" y="0" width="49" height="48">
<rect x="0.899902" width="48" height="48" fill="#D9D9D9"/>
</mask>
<g mask="url(#mask0_439_2)">
<path d="M9.2844 28.3154H11.1884L12.3189 25.1309H17.7884L18.9499 28.3154H20.8424L16.1074 15.7229H13.9999L9.2844 28.3154ZM12.9309 23.4729L15.0039 17.7384H15.1039L17.1769 23.4729H12.9309ZM28.7844 19.4924V16.8614C29.8717 16.3564 31.0096 15.9776 32.1979 15.7249C33.3866 15.4723 34.6206 15.3459 35.8999 15.3459C36.7026 15.3459 37.4821 15.4031 38.2384 15.5174C38.9947 15.6314 39.7537 15.7821 40.5154 15.9694V18.4769C39.7667 18.2153 39.0224 18.0254 38.2824 17.9074C37.5427 17.7894 36.7486 17.7304 35.8999 17.7304C34.6206 17.7304 33.3814 17.8824 32.1824 18.1864C30.9837 18.4904 29.8511 18.9258 28.7844 19.4924ZM28.7844 30.4539V27.7844C29.8461 27.2794 30.9807 26.9006 32.1884 26.6479C33.3961 26.3956 34.6332 26.2694 35.8999 26.2694C36.7026 26.2694 37.4821 26.3264 38.2384 26.4404C38.9947 26.5544 39.7537 26.7051 40.5154 26.8924V29.3999C39.7667 29.1383 39.0224 28.9484 38.2824 28.8304C37.5427 28.7128 36.7486 28.6539 35.8999 28.6539C34.6206 28.6539 33.3814 28.8071 32.1824 29.1134C30.9837 29.4198 29.8511 29.8666 28.7844 30.4539ZM28.7844 24.9924V22.3229C29.8717 21.8179 31.0096 21.4391 32.1979 21.1864C33.3866 20.9338 34.6206 20.8074 35.8999 20.8074C36.7026 20.8074 37.4821 20.8646 38.2384 20.9789C38.9947 21.0929 39.7537 21.2436 40.5154 21.4309V23.9384C39.7667 23.6768 39.0224 23.4869 38.2824 23.3689C37.5427 23.2513 36.7486 23.1924 35.8999 23.1924C34.6206 23.1924 33.3814 23.3508 32.1824 23.6674C30.9837 23.9841 29.8511 24.4258 28.7844 24.9924ZM13.8999 32.0384C15.5562 32.0384 17.1677 32.2263 18.7344 32.6019C20.3011 32.9776 21.8562 33.5668 23.3999 34.3694V14.7074C21.9949 13.7921 20.4744 13.1056 18.8384 12.6479C17.2024 12.1903 15.5562 11.9614 13.8999 11.9614C12.6999 11.9614 11.5787 12.0556 10.5364 12.2439C9.49407 12.4326 8.4229 12.7409 7.3229 13.1689C7.16924 13.2203 7.06024 13.2941 6.9959 13.3904C6.9319 13.4864 6.8999 13.5921 6.8999 13.7074V32.6229C6.8999 32.8026 6.96407 32.9341 7.0924 33.0174C7.2204 33.1008 7.3614 33.1103 7.5154 33.0459C8.46407 32.7229 9.46524 32.4743 10.5189 32.2999C11.5729 32.1256 12.6999 32.0384 13.8999 32.0384ZM26.3999 34.3694C27.9436 33.5668 29.4987 32.9776 31.0654 32.6019C32.6321 32.2263 34.2436 32.0384 35.8999 32.0384C37.0999 32.0384 38.2269 32.1256 39.2809 32.2999C40.3346 32.4743 41.3357 32.7229 42.2844 33.0459C42.4384 33.1103 42.5794 33.1008 42.7074 33.0174C42.8357 32.9341 42.8999 32.8026 42.8999 32.6229V13.7074C42.8999 13.5921 42.8679 13.4896 42.8039 13.3999C42.7396 13.3103 42.6306 13.2333 42.4769 13.1689C41.3769 12.7409 40.3057 12.4326 39.2634 12.2439C38.2211 12.0556 37.0999 11.9614 35.8999 11.9614C34.2436 11.9614 32.5974 12.1903 30.9614 12.6479C29.3254 13.1056 27.8049 13.7921 26.3999 14.7074V34.3694ZM24.8999 38.7689C23.2872 37.5793 21.5476 36.6601 19.6809 36.0114C17.8142 35.3628 15.8872 35.0384 13.8999 35.0384C12.6796 35.0384 11.4809 35.1736 10.3039 35.4439C9.1269 35.7146 7.99224 36.1128 6.8999 36.6384C6.18724 36.9664 5.50907 36.9144 4.8654 36.4824C4.22174 36.0504 3.8999 35.4383 3.8999 34.6459V12.9309C3.8999 12.4999 4.0109 12.0954 4.2329 11.7174C4.45457 11.3391 4.7744 11.0666 5.1924 10.8999C6.54607 10.2409 7.9569 9.75309 9.4249 9.43643C10.8929 9.11976 12.3846 8.96143 13.8999 8.96143C15.8459 8.96143 17.7472 9.22743 19.6039 9.75943C21.4602 10.2918 23.2256 11.0771 24.8999 12.1154C26.5742 11.0771 28.3396 10.2918 30.1959 9.75943C32.0526 9.22743 33.9539 8.96143 35.8999 8.96143C37.4152 8.96143 38.9069 9.11976 40.3749 9.43643C41.8429 9.75309 43.2537 10.2409 44.6074 10.8999C45.0254 11.0666 45.3452 11.3391 45.5669 11.7174C45.7889 12.0954 45.8999 12.4999 45.8999 12.9309V34.6459C45.8999 35.4383 45.5652 36.0441 44.8959 36.4634C44.2266 36.8824 43.5227 36.9279 42.7844 36.5999C41.7051 36.0869 40.5866 35.6984 39.4289 35.4344C38.2712 35.1704 37.0949 35.0384 35.8999 35.0384C33.9126 35.0384 31.9856 35.3628 30.1189 36.0114C28.2522 36.6601 26.5126 37.5793 24.8999 38.7689Z" fill="#4261EA"/>
</g>
</svg>
