<svg width="49" height="48" viewBox="0 0 49 48" fill="none" xmlns="http://www.w3.org/2000/svg">
<mask id="mask0_439_393" style="mask-type:alpha" maskUnits="userSpaceOnUse" x="0" y="0" width="49" height="48">
<rect x="0.899902" width="48" height="48" fill="#D9D9D9"/>
</mask>
<g mask="url(#mask0_439_393)">
<path d="M20.3564 42.2094H12.2332C11.363 42.2094 10.6216 41.9103 10.0091 41.312C9.39659 40.7138 9.09033 39.9896 9.09033 39.1396V31.2053C10.5249 31.0348 11.7565 30.4524 12.7853 29.4581C13.814 28.4635 14.3284 27.2566 14.3284 25.8373C14.3284 24.4181 13.814 23.2111 12.7853 22.2165C11.7565 21.2223 10.5249 20.6399 9.09033 20.4693V12.535C9.09033 11.685 9.39659 10.9609 10.0091 10.3626C10.6216 9.76436 11.363 9.46522 12.2332 9.46522H20.6141C20.8024 8.16398 21.3859 7.09093 22.3647 6.24606C23.3439 5.40119 24.5064 4.97876 25.8522 4.97876C27.1981 4.97876 28.3606 5.40119 29.3398 6.24606C30.3186 7.09093 30.9021 8.16398 31.0903 9.46522H39.4713C40.3415 9.46522 41.0829 9.76436 41.6954 10.3626C42.3079 10.9609 42.6141 11.685 42.6141 12.535V20.721C43.9464 20.9049 45.045 21.4748 45.91 22.4309C46.7749 23.3873 47.2074 24.5228 47.2074 25.8373C47.2074 27.1519 46.7749 28.2873 45.91 29.2437C45.045 30.1998 43.9464 30.7698 42.6141 30.9536V39.1396C42.6141 39.9896 42.3079 40.7138 41.6954 41.312C41.0829 41.9103 40.3415 42.2094 39.4713 42.2094H31.348C31.1602 40.74 30.5464 39.52 29.5069 38.5492C28.4673 37.5785 27.2491 37.0931 25.8522 37.0931C24.4554 37.0931 23.2372 37.5785 22.1976 38.5492C21.158 39.52 20.5443 40.74 20.3564 42.2094ZM12.2332 39.1396H17.9144C18.6317 37.3346 19.7647 36.0307 21.3134 35.2277C22.8618 34.4248 24.3747 34.0234 25.8522 34.0234C27.3297 34.0234 28.8427 34.4248 30.391 35.2277C31.9398 36.0307 33.0728 37.3346 33.79 39.1396H39.4713V28.002H42.05C42.6918 27.9232 43.1881 27.67 43.5387 27.2422C43.8893 26.8145 44.0646 26.3462 44.0646 25.8373C44.0646 25.3284 43.8893 24.8601 43.5387 24.4324C43.1881 24.0047 42.6918 23.7514 42.05 23.6726H39.4713V12.535H28.0685V10.0162C27.9878 9.38933 27.7285 8.90465 27.2906 8.5622C26.8527 8.21975 26.3733 8.04853 25.8522 8.04853C25.3312 8.04853 24.8518 8.21975 24.4139 8.5622C23.976 8.90465 23.7167 9.38933 23.636 10.0162V12.535H12.2332V18.1394C13.8235 18.7823 15.0941 19.8035 16.045 21.203C16.9958 22.6028 17.4713 24.1476 17.4713 25.8373C17.4713 27.5059 16.9958 29.0401 16.045 30.4399C15.0941 31.8397 13.8235 32.8715 12.2332 33.5353V39.1396Z" fill="#EA4242"/>
</g>
</svg>
