<svg width="25" height="27" viewBox="0 0 25 27" fill="none" xmlns="http://www.w3.org/2000/svg">
<ellipse cx="20.8055" cy="22.0107" rx="4.08333" ry="4.15625" fill="#216BFF"/>
<path fill-rule="evenodd" clip-rule="evenodd" d="M16.5924 9.27801H12.1967V9.27052C10.0211 9.14008 8.29631 7.30291 8.29631 5.05571C8.29631 2.80851 10.0211 0.971344 12.1967 0.840902V0.833577H12.4184C12.4271 0.833523 12.4358 0.833496 12.4444 0.833496C12.4531 0.833496 12.4618 0.833523 12.4705 0.833577H20.493V0.840972C20.5749 0.836065 20.6574 0.833577 20.7405 0.833577C23.0315 0.833577 24.8886 2.7239 24.8887 5.05574V5.05579V13.5002V13.5003C24.8887 15.8322 23.0315 17.7225 20.7405 17.7225C18.4496 17.7225 16.5924 15.8322 16.5924 13.5003V13.5002V9.27801Z" fill="white"/>
<path fill-rule="evenodd" clip-rule="evenodd" d="M0.0163606 21.5667C0.00549543 21.6913 -5.34058e-05 21.8174 -5.34058e-05 21.9449C-5.34058e-05 24.2767 1.8571 26.167 4.14803 26.1671H4.14809H12.4443H12.4444C14.7354 26.1671 16.5926 24.2767 16.5926 21.9449C16.5926 19.613 14.7354 17.7226 12.4444 17.7226H12.4443H8.29623V13.5224C8.29626 13.5151 8.29628 13.5078 8.29628 13.5005C8.29628 13.4932 8.29626 13.486 8.29623 13.4787V13.1222H8.27986C8.0919 10.9676 6.31384 9.27832 4.14814 9.27832C1.98245 9.27832 0.204383 10.9676 0.0164239 13.1222H-5.34058e-05V21.5667H0.0163606Z" fill="white"/>
</svg>
