<svg width="14" height="14" viewBox="0 0 14 14" fill="none" xmlns="http://www.w3.org/2000/svg">
<path d="M6.3765 1.22175C6.6363 0.712676 7.3637 0.712676 7.6235 1.22175L9.23629 4.38202C9.33801 4.58133 9.52887 4.72 9.74985 4.75514L13.2538 5.31242C13.8183 5.40219 14.043 6.09399 13.6392 6.49839L11.132 9.00882C10.9738 9.16715 10.9009 9.39152 10.9358 9.61254L11.4886 13.1172C11.5776 13.6818 10.9891 14.1093 10.4797 13.8502L7.31739 12.2415C7.11796 12.14 6.88204 12.14 6.68261 12.2415L3.52027 13.8502C3.01086 14.1093 2.42238 13.6818 2.51142 13.1172L3.06421 9.61254C3.09907 9.39152 3.02617 9.16715 2.86805 9.00883L0.360831 6.49839C-0.0430472 6.09399 0.181733 5.40219 0.746175 5.31242L4.25015 4.75514C4.47113 4.72 4.662 4.58133 4.76371 4.38202L6.3765 1.22175Z" fill="#F4C050"/>
</svg>
