<svg width="14" height="14" viewBox="0 0 14 14" fill="none" xmlns="http://www.w3.org/2000/svg">
<path d="M7 2.19992L8.34558 4.83659C8.59259 5.32061 9.05611 5.65738 9.59278 5.74273L12.5162 6.20768L10.4244 8.30217L11.132 9.00882L10.4244 8.30217C10.0404 8.68667 9.86334 9.23157 9.948 9.76834L10.4092 12.6924L7.77081 11.3502C7.28647 11.1038 6.71353 11.1038 6.22919 11.3502L3.5908 12.6924L4.052 9.76834C4.13666 9.23157 3.95961 8.68667 3.57561 8.30217L1.4838 6.20768L4.40722 5.74273C4.94389 5.65738 5.40741 5.32061 5.65442 4.83659L7 2.19992ZM6.73279 1.67631L6.73297 1.67668C6.73291 1.67656 6.73285 1.67644 6.73279 1.67631L7 1.53995L6.73279 1.67631ZM12.9316 5.79174L12.9311 5.7922L12.9316 5.79174Z" stroke="#F4C050" stroke-width="2"/>
</svg>
