<svg width="14" height="15" viewBox="0 0 14 15" fill="none" xmlns="http://www.w3.org/2000/svg">
<path d="M2.74448 12.5332H12.0787C13.2118 12.5332 13.7729 11.9721 13.7729 10.8606V4.27271C13.7729 3.16123 13.2118 2.6001 12.0787 2.6001H2.74448C1.61682 2.6001 1.05029 3.15583 1.05029 4.27271V10.8606C1.05029 11.9775 1.61682 12.5332 2.74448 12.5332ZM1.91897 4.31587C1.91897 3.75474 2.21572 3.46877 2.75527 3.46877H12.0679C12.6021 3.46877 12.9042 3.75474 12.9042 4.31587V4.41299H1.91897V4.31587ZM2.75527 11.6646C2.21572 11.6646 1.91897 11.3786 1.91897 10.8175V5.17375H12.9042V10.8175C12.9042 11.3786 12.6021 11.6646 12.0679 11.6646H2.75527ZM3.37036 10.3373C3.37036 10.6178 3.5646 10.8067 3.85056 10.8067H10.9888C11.2748 10.8067 11.469 10.6178 11.469 10.3373V9.52793C11.469 9.24736 11.2748 9.05852 10.9888 9.05852H3.85056C3.5646 9.05852 3.37036 9.24736 3.37036 9.52793V10.3373Z" fill="#0A84FF"/>
</svg>
