<svg width="14" height="15" viewBox="0 0 14 15" fill="none" xmlns="http://www.w3.org/2000/svg">
<path d="M2.84458 12.4334H12.1788C13.3119 12.4334 13.873 11.8722 13.873 10.7608V4.17285C13.873 3.06138 13.3119 2.50024 12.1788 2.50024H2.84458C1.71692 2.50024 1.15039 3.05598 1.15039 4.17285V10.7608C1.15039 11.8776 1.71692 12.4334 2.84458 12.4334ZM2.01907 4.21602C2.01907 3.65488 2.31582 3.36892 2.85537 3.36892H12.168C12.7022 3.36892 13.0043 3.65488 13.0043 4.21602V4.31313H2.01907V4.21602ZM2.85537 11.5647C2.31582 11.5647 2.01907 11.2787 2.01907 10.7176V5.0739H13.0043V10.7176C13.0043 11.2787 12.7022 11.5647 12.168 11.5647H2.85537ZM3.47046 10.2374C3.47046 10.518 3.6647 10.7068 3.95066 10.7068H11.0889C11.3749 10.7068 11.5691 10.518 11.5691 10.2374V9.42808C11.5691 9.14751 11.3749 8.95867 11.0889 8.95867H3.95066C3.6647 8.95867 3.47046 9.14751 3.47046 9.42808V10.2374Z" fill="#0A84FF"/>
</svg>
