<svg width="14" height="15" viewBox="0 0 14 15" fill="none" xmlns="http://www.w3.org/2000/svg">
<path d="M2.84458 12.5511H12.1788C13.3119 12.5511 13.873 11.9899 13.873 10.8784V4.29053C13.873 3.17905 13.3119 2.61792 12.1788 2.61792H2.84458C1.71692 2.61792 1.15039 3.17366 1.15039 4.29053V10.8784C1.15039 11.9953 1.71692 12.5511 2.84458 12.5511ZM2.01907 4.33369C2.01907 3.77256 2.31582 3.4866 2.85537 3.4866H12.168C12.7022 3.4866 13.0043 3.77256 13.0043 4.33369V4.43081H2.01907V4.33369ZM2.85537 11.6824C2.31582 11.6824 2.01907 11.3964 2.01907 10.8353V5.19158H13.0043V10.8353C13.0043 11.3964 12.7022 11.6824 12.168 11.6824H2.85537ZM3.47046 10.3551C3.47046 10.6356 3.6647 10.8245 3.95066 10.8245H11.0889C11.3749 10.8245 11.5691 10.6356 11.5691 10.3551V9.54575C11.5691 9.26519 11.3749 9.07634 11.0889 9.07634H3.95066C3.6647 9.07634 3.47046 9.26519 3.47046 9.54575V10.3551Z" fill="#0A84FF"/>
</svg>
