<svg width="14" height="14" viewBox="0 0 14 14" fill="none" xmlns="http://www.w3.org/2000/svg">
<path d="M2.74448 11.6509H12.0787C13.2118 11.6509 13.7729 11.0898 13.7729 9.9783V3.39038C13.7729 2.27891 13.2118 1.71777 12.0787 1.71777H2.74448C1.61682 1.71777 1.05029 2.27351 1.05029 3.39038V9.9783C1.05029 11.0952 1.61682 11.6509 2.74448 11.6509ZM1.91897 3.43354C1.91897 2.87241 2.21572 2.58645 2.75527 2.58645H12.0679C12.6021 2.58645 12.9042 2.87241 12.9042 3.43354V3.53066H1.91897V3.43354ZM2.75527 10.7822C2.21572 10.7822 1.91897 10.4963 1.91897 9.93513V4.29143H12.9042V9.93513C12.9042 10.4963 12.6021 10.7822 12.0679 10.7822H2.75527ZM3.37036 9.45493C3.37036 9.7355 3.5646 9.92434 3.85056 9.92434H10.9888C11.2748 9.92434 11.469 9.7355 11.469 9.45493V8.64561C11.469 8.36504 11.2748 8.1762 10.9888 8.1762H3.85056C3.5646 8.1762 3.37036 8.36504 3.37036 8.64561V9.45493Z" fill="#0A84FF"/>
</svg>
