<svg width="14" height="15" viewBox="0 0 14 15" fill="none" xmlns="http://www.w3.org/2000/svg">
<path d="M2.80308 12.0921H12.1373C13.2704 12.0921 13.8315 11.5309 13.8315 10.4195V3.83154C13.8315 2.72007 13.2704 2.15894 12.1373 2.15894H2.80308C1.67542 2.15894 1.10889 2.71467 1.10889 3.83154V10.4195C1.10889 11.5363 1.67542 12.0921 2.80308 12.0921ZM1.97756 3.87471C1.97756 3.31357 2.27432 3.02761 2.81387 3.02761H12.1265C12.6607 3.02761 12.9628 3.31357 12.9628 3.87471V3.97183H1.97756V3.87471ZM2.81387 11.2234C2.27432 11.2234 1.97756 10.9374 1.97756 10.3763V4.73259H12.9628V10.3763C12.9628 10.9374 12.6607 11.2234 12.1265 11.2234H2.81387ZM3.42896 9.89609C3.42896 10.1767 3.62319 10.3655 3.90916 10.3655H11.0474C11.3334 10.3655 11.5276 10.1767 11.5276 9.89609V9.08677C11.5276 8.8062 11.3334 8.61736 11.0474 8.61736H3.90916C3.62319 8.61736 3.42896 8.8062 3.42896 9.08677V9.89609Z" fill="#0A84FF"/>
</svg>
