<svg width="17" height="32" viewBox="0 0 17 32" fill="none" xmlns="http://www.w3.org/2000/svg">
<path d="M8.49985 24.9229C8.1443 24.9229 7.84007 24.7965 7.58719 24.5436C7.33407 24.2905 7.20752 23.9861 7.20752 23.6306C7.20752 23.275 7.33407 22.9708 7.58719 22.7179C7.84007 22.4648 8.1443 22.3382 8.49985 22.3382C8.85541 22.3382 9.15963 22.4648 9.41252 22.7179C9.66563 22.9708 9.79219 23.275 9.79219 23.6306C9.79219 23.9861 9.66563 24.2905 9.41252 24.5436C9.15963 24.7965 8.85541 24.9229 8.49985 24.9229ZM8.49985 17.2922C8.1443 17.2922 7.84007 17.1657 7.58719 16.9126C7.33407 16.6597 7.20752 16.3555 7.20752 15.9999C7.20752 15.6443 7.33407 15.3401 7.58719 15.0872C7.84007 14.8341 8.1443 14.7076 8.49985 14.7076C8.85541 14.7076 9.15963 14.8341 9.41252 15.0872C9.66563 15.3401 9.79219 15.6443 9.79219 15.9999C9.79219 16.3555 9.66563 16.6597 9.41252 16.9126C9.15963 17.1657 8.85541 17.2922 8.49985 17.2922ZM8.49985 9.66157C8.1443 9.66157 7.84007 9.53502 7.58719 9.28191C7.33407 9.02902 7.20752 8.72479 7.20752 8.36924C7.20752 8.01368 7.33407 7.70935 7.58719 7.45624C7.84007 7.20335 8.1443 7.0769 8.49985 7.0769C8.85541 7.0769 9.15963 7.20335 9.41252 7.45624C9.66563 7.70935 9.79219 8.01368 9.79219 8.36924C9.79219 8.72479 9.66563 9.02902 9.41252 9.28191C9.15963 9.53502 8.85541 9.66157 8.49985 9.66157Z" fill="white"/>
</svg>
