<svg width="14" height="14" viewBox="0 0 14 14" fill="none" xmlns="http://www.w3.org/2000/svg">
<path d="M6.2764 1.22175C6.5362 0.712676 7.26361 0.712676 7.5234 1.22175L9.1362 4.38202C9.23791 4.58133 9.42877 4.72 9.64975 4.75514L13.1537 5.31242C13.7182 5.40219 13.9429 6.09399 13.5391 6.49839L11.0319 9.00882C10.8737 9.16715 10.8008 9.39152 10.8357 9.61254L11.3885 13.1172C11.4775 13.6818 10.889 14.1093 10.3796 13.8502L7.2173 12.2415C7.01786 12.14 6.78194 12.14 6.58251 12.2415L3.42017 13.8502C2.91076 14.1093 2.32228 13.6818 2.41133 13.1172L2.96411 9.61254C2.99897 9.39152 2.92607 9.16715 2.76795 9.00883L0.260733 6.49839C-0.143145 6.09399 0.0816357 5.40219 0.646078 5.31242L4.15006 4.75514C4.37104 4.72 4.5619 4.58133 4.66361 4.38202L6.2764 1.22175Z" fill="#F4C050"/>
</svg>
