<svg width="100" height="100" viewBox="0 0 70 70" fill="none" xmlns="http://www.w3.org/2000/svg">
<rect x="0.397727" y="0.397727" width="69.2045" height="69.2045" rx="12.8455" stroke="#242325" stroke-width="0.795455"/>
<mask id="mask0_322_1086" style="mask-type:alpha" maskUnits="userSpaceOnUse" x="19" y="12" width="32" height="33">
<rect x="19.1823" y="12.489" width="31.6356" height="31.6356" fill="#D9D9D9"/>
</mask>
<g mask="url(#mask0_322_1086)">
<path d="M35 32.2614C33.9126 32.2614 32.9816 31.8742 32.2072 31.0998C31.4328 30.3253 31.0456 29.3944 31.0456 28.3069C31.0456 27.2194 31.4328 26.2885 32.2072 25.5141C32.9816 24.7397 33.9126 24.3525 35 24.3525C36.0875 24.3525 37.0185 24.7397 37.7929 25.5141C38.5673 26.2885 38.9545 27.2194 38.9545 28.3069C38.9545 29.3944 38.5673 30.3253 37.7929 31.0998C37.0185 31.8742 36.0875 32.2614 35 32.2614ZM35 30.9432C35.725 30.9432 36.3456 30.6851 36.8619 30.1688C37.3782 29.6525 37.6363 29.0319 37.6363 28.3069C37.6363 27.5819 37.3782 26.9613 36.8619 26.445C36.3456 25.9288 35.725 25.6706 35 25.6706C34.2751 25.6706 33.6544 25.9288 33.1382 26.445C32.6219 26.9613 32.3637 27.5819 32.3637 28.3069C32.3637 29.0319 32.6219 29.6525 33.1382 30.1688C33.6544 30.6851 34.2751 30.9432 35 30.9432ZM26.5925 38.8521C25.9803 38.8521 25.4709 38.6489 25.0645 38.2425C24.658 37.8361 24.4548 37.3267 24.4548 36.7144V32.2614H25.773V36.7227C25.773 36.9256 25.8575 37.1116 26.0264 37.2806C26.1953 37.4495 26.3813 37.534 26.5843 37.534H31.0456V38.8521H26.5925ZM38.9545 38.8521V37.534H43.4158C43.6188 37.534 43.8047 37.4495 43.9737 37.2806C44.1426 37.1116 44.2271 36.9256 44.2271 36.7227V32.2614H45.5452V36.7144C45.5452 37.3267 45.342 37.8361 44.9356 38.2425C44.5292 38.6489 44.0198 38.8521 43.4075 38.8521H38.9545ZM24.4548 24.3525V19.8994C24.4548 19.2871 24.658 18.7778 25.0645 18.3714C25.4709 17.9649 25.9803 17.7617 26.5925 17.7617H31.0456V19.0799H26.5843C26.3813 19.0799 26.1953 19.1643 26.0264 19.3333C25.8575 19.5022 25.773 19.6882 25.773 19.8912V24.3525H24.4548ZM44.2271 24.3525V19.8912C44.2271 19.6882 44.1426 19.5022 43.9737 19.3333C43.8047 19.1643 43.6188 19.0799 43.4158 19.0799H38.9545V17.7617H43.4075C44.0198 17.7617 44.5292 17.9649 44.9356 18.3714C45.342 18.7778 45.5452 19.2871 45.5452 19.8994V24.3525H44.2271Z" fill="#EA7D42"/>
</g>
<path d="M31.6835 53.7577C31.6835 54.466 31.548 55.0803 31.2771 55.6007C31.0092 56.118 30.6381 56.5137 30.1639 56.7877C29.6928 57.0587 29.1585 57.1942 28.5612 57.1942C27.9638 57.1942 27.428 57.0587 26.9538 56.7877C26.4827 56.5137 26.1116 56.1164 25.8406 55.5961C25.5727 55.0757 25.4388 54.4629 25.4388 53.7577C25.4388 53.0434 25.5727 52.4275 25.8406 51.9102C26.1116 51.3929 26.4827 50.9987 26.9538 50.7278C27.428 50.4568 27.9638 50.3213 28.5612 50.3213C29.1585 50.3213 29.6928 50.4568 30.1639 50.7278C30.6381 50.9987 31.0092 51.3929 31.2771 51.9102C31.548 52.4275 31.6835 53.0434 31.6835 53.7577ZM30.2794 53.7577C30.2794 53.2866 30.2086 52.8863 30.0669 52.5568C29.9283 52.2274 29.7297 51.9779 29.4711 51.8086C29.2155 51.6361 28.9122 51.5499 28.5612 51.5499C28.2132 51.5499 27.9099 51.6361 27.6512 51.8086C27.3957 51.9779 27.197 52.2274 27.0554 52.5568C26.9138 52.8863 26.8429 53.2866 26.8429 53.7577C26.8429 54.2289 26.9138 54.6292 27.0554 54.9586C27.197 55.2881 27.3957 55.5391 27.6512 55.7115C27.9099 55.8809 28.2132 55.9656 28.5612 55.9656C28.9122 55.9656 29.2155 55.8809 29.4711 55.7115C29.7297 55.5391 29.9283 55.2881 30.0669 54.9586C30.2086 54.6292 30.2794 54.2289 30.2794 53.7577ZM37.1569 52.7462C37.123 52.4999 37.0399 52.2874 36.9075 52.1088C36.7781 51.9271 36.6088 51.7886 36.3994 51.6931C36.19 51.5976 35.9575 51.5499 35.7019 51.5499C35.354 51.5499 35.0491 51.6377 34.7874 51.8132C34.5287 51.9856 34.3271 52.2381 34.1823 52.5707C34.0376 52.9002 33.9652 53.2959 33.9652 53.7577C33.9652 54.2319 34.0376 54.6338 34.1823 54.9633C34.3271 55.2897 34.5287 55.5391 34.7874 55.7115C35.0491 55.8809 35.3494 55.9656 35.6881 55.9656C35.9437 55.9656 36.1731 55.9194 36.3763 55.827C36.5826 55.7346 36.7535 55.6038 36.889 55.4344C37.0245 55.262 37.1138 55.0572 37.1569 54.8201L38.5656 54.8339C38.5133 55.2527 38.3624 55.6422 38.113 56.0025C37.8667 56.3628 37.5341 56.6522 37.1153 56.8709C36.6965 57.0864 36.2146 57.1942 35.6696 57.1942C35.0722 57.1942 34.538 57.0587 34.0669 56.7877C33.5957 56.5137 33.2262 56.118 32.9583 55.6007C32.6935 55.0803 32.5611 54.466 32.5611 53.7577C32.5611 53.0434 32.695 52.4275 32.9629 51.9102C33.2339 51.3929 33.6034 50.9987 34.0715 50.7278C34.5426 50.4568 35.0753 50.3213 35.6696 50.3213C36.1838 50.3213 36.6488 50.4168 37.0645 50.6077C37.4802 50.7986 37.8174 51.0773 38.076 51.4437C38.3378 51.807 38.501 52.2412 38.5656 52.7462H37.1569ZM39.5356 50.4137H42.1499C42.6549 50.4137 43.086 50.503 43.4432 50.6816C43.8034 50.8571 44.0775 51.1096 44.2653 51.4391C44.4532 51.7685 44.5471 52.1535 44.5471 52.5938C44.5471 53.031 44.4516 53.4113 44.2607 53.7346C44.0729 54.0549 43.7957 54.3012 43.4293 54.4737C43.0629 54.643 42.6256 54.7277 42.1176 54.7277H40.3485V53.5961H41.9005C42.1776 53.5961 42.4055 53.5591 42.5841 53.4852C42.7627 53.4082 42.8966 53.2959 42.9859 53.148C43.0752 53.0002 43.1199 52.8155 43.1199 52.5938C43.1199 52.3659 43.0752 52.175 42.9859 52.021C42.8966 51.8671 42.7611 51.7516 42.5794 51.6746C42.3978 51.5946 42.1699 51.5545 41.8959 51.5545H40.9213V57.1018H39.5356V50.4137ZM44.7873 57.1018H43.2446L41.6233 54.0626H43.1245L44.7873 57.1018Z" fill="#EA7D42"/>
</svg>
