<svg width="14" height="14" viewBox="0 0 14 14" fill="none" xmlns="http://www.w3.org/2000/svg">
<path d="M2.84458 11.8333H12.1788C13.3119 11.8333 13.873 11.2721 13.873 10.1607V3.57275C13.873 2.46128 13.3119 1.90015 12.1788 1.90015H2.84458C1.71692 1.90015 1.15039 2.45588 1.15039 3.57275V10.1607C1.15039 11.2775 1.71692 11.8333 2.84458 11.8333ZM2.01907 3.61592C2.01907 3.05479 2.31582 2.76882 2.85537 2.76882H12.168C12.7022 2.76882 13.0043 3.05479 13.0043 3.61592V3.71304H2.01907V3.61592ZM2.85537 10.9646C2.31582 10.9646 2.01907 10.6786 2.01907 10.1175V4.4738H13.0043V10.1175C13.0043 10.6786 12.7022 10.9646 12.168 10.9646H2.85537ZM3.47046 9.6373C3.47046 9.91787 3.6647 10.1067 3.95066 10.1067H11.0889C11.3749 10.1067 11.5691 9.91787 11.5691 9.6373V8.82798C11.5691 8.54741 11.3749 8.35857 11.0889 8.35857H3.95066C3.6647 8.35857 3.47046 8.54741 3.47046 8.82798V9.6373Z" fill="#0A84FF"/>
</svg>
