<svg width="14" height="14" viewBox="0 0 14 14" fill="none" xmlns="http://www.w3.org/2000/svg">
<path d="M2.84458 11.7508H12.1788C13.3119 11.7508 13.873 11.1896 13.873 10.0781V3.49023C13.873 2.37876 13.3119 1.81763 12.1788 1.81763H2.84458C1.71692 1.81763 1.15039 2.37336 1.15039 3.49023V10.0781C1.15039 11.195 1.71692 11.7508 2.84458 11.7508ZM2.01907 3.5334C2.01907 2.97227 2.31582 2.6863 2.85537 2.6863H12.168C12.7022 2.6863 13.0043 2.97227 13.0043 3.5334V3.63052H2.01907V3.5334ZM2.85537 10.8821C2.31582 10.8821 2.01907 10.5961 2.01907 10.035V4.39128H13.0043V10.035C13.0043 10.5961 12.7022 10.8821 12.168 10.8821H2.85537ZM3.47046 9.55479C3.47046 9.83535 3.6647 10.0242 3.95066 10.0242H11.0889C11.3749 10.0242 11.5691 9.83535 11.5691 9.55479V8.74546C11.5691 8.46489 11.3749 8.27605 11.0889 8.27605H3.95066C3.6647 8.27605 3.47046 8.46489 3.47046 8.74546V9.55479Z" fill="#0A84FF"/>
</svg>
