<svg width="14" height="14" viewBox="0 0 14 14" fill="none" xmlns="http://www.w3.org/2000/svg">
<path d="M2.84458 11.951H12.1788C13.3119 11.951 13.873 11.3898 13.873 10.2783V3.69043C13.873 2.57896 13.3119 2.01782 12.1788 2.01782H2.84458C1.71692 2.01782 1.15039 2.57356 1.15039 3.69043V10.2783C1.15039 11.3952 1.71692 11.951 2.84458 11.951ZM2.01907 3.73359C2.01907 3.17246 2.31582 2.8865 2.85537 2.8865H12.168C12.7022 2.8865 13.0043 3.17246 13.0043 3.73359V3.83071H2.01907V3.73359ZM2.85537 11.0823C2.31582 11.0823 2.01907 10.7963 2.01907 10.2352V4.59148H13.0043V10.2352C13.0043 10.7963 12.7022 11.0823 12.168 11.0823H2.85537ZM3.47046 9.75498C3.47046 10.0355 3.6647 10.2244 3.95066 10.2244H11.0889C11.3749 10.2244 11.5691 10.0355 11.5691 9.75498V8.94565C11.5691 8.66509 11.3749 8.47625 11.0889 8.47625H3.95066C3.6647 8.47625 3.47046 8.66509 3.47046 8.94565V9.75498Z" fill="#0A84FF"/>
</svg>
