<svg width="14" height="14" viewBox="0 0 14 14" fill="none" xmlns="http://www.w3.org/2000/svg">
<path d="M2.84458 11.6331H12.1788C13.3119 11.6331 13.873 11.0719 13.873 9.96047V3.37256C13.873 2.26108 13.3119 1.69995 12.1788 1.69995H2.84458C1.71692 1.69995 1.15039 2.25569 1.15039 3.37256V9.96047C1.15039 11.0773 1.71692 11.6331 2.84458 11.6331ZM2.01907 3.41572C2.01907 2.85459 2.31582 2.56863 2.85537 2.56863H12.168C12.7022 2.56863 13.0043 2.85459 13.0043 3.41572V3.51284H2.01907V3.41572ZM2.85537 10.7644C2.31582 10.7644 2.01907 10.4784 2.01907 9.91731V4.27361H13.0043V9.91731C13.0043 10.4784 12.7022 10.7644 12.168 10.7644H2.85537ZM3.47046 9.43711C3.47046 9.71768 3.6647 9.90652 3.95066 9.90652H11.0889C11.3749 9.90652 11.5691 9.71768 11.5691 9.43711V8.62778C11.5691 8.34722 11.3749 8.15837 11.0889 8.15837H3.95066C3.6647 8.15837 3.47046 8.34722 3.47046 8.62778V9.43711Z" fill="#0A84FF"/>
</svg>
