<svg width="18" height="32" viewBox="0 0 18 32" fill="none" xmlns="http://www.w3.org/2000/svg">
<path d="M9.39975 24.9229C9.0442 24.9229 8.73998 24.7965 8.48709 24.5436C8.23398 24.2905 8.10742 23.9861 8.10742 23.6306C8.10742 23.275 8.23398 22.9708 8.48709 22.7179C8.73998 22.4648 9.0442 22.3382 9.39975 22.3382C9.75531 22.3382 10.0595 22.4648 10.3124 22.7179C10.5655 22.9708 10.6921 23.275 10.6921 23.6306C10.6921 23.9861 10.5655 24.2905 10.3124 24.5436C10.0595 24.7965 9.75531 24.9229 9.39975 24.9229ZM9.39975 17.2922C9.0442 17.2922 8.73998 17.1657 8.48709 16.9126C8.23398 16.6597 8.10742 16.3555 8.10742 15.9999C8.10742 15.6443 8.23398 15.3401 8.48709 15.0872C8.73998 14.8341 9.0442 14.7076 9.39975 14.7076C9.75531 14.7076 10.0595 14.8341 10.3124 15.0872C10.5655 15.3401 10.6921 15.6443 10.6921 15.9999C10.6921 16.3555 10.5655 16.6597 10.3124 16.9126C10.0595 17.1657 9.75531 17.2922 9.39975 17.2922ZM9.39975 9.66157C9.0442 9.66157 8.73998 9.53502 8.48709 9.28191C8.23398 9.02902 8.10742 8.72479 8.10742 8.36924C8.10742 8.01368 8.23398 7.70935 8.48709 7.45624C8.73998 7.20335 9.0442 7.0769 9.39975 7.0769C9.75531 7.0769 10.0595 7.20335 10.3124 7.45624C10.5655 7.70935 10.6921 8.01368 10.6921 8.36924C10.6921 8.72479 10.5655 9.02902 10.3124 9.28191C10.0595 9.53502 9.75531 9.66157 9.39975 9.66157Z" fill="white"/>
</svg>
