<svg width="14" height="14" viewBox="0 0 14 14" fill="none" xmlns="http://www.w3.org/2000/svg">
<path d="M6.8999 2.19992L8.24548 4.83659C8.49249 5.32061 8.95602 5.65738 9.49268 5.74273L12.4161 6.20768L10.3243 8.30217L11.0319 9.00882L10.3243 8.30217C9.94029 8.68667 9.76324 9.23157 9.84791 9.76834L10.3091 12.6924L7.67071 11.3502C7.18637 11.1038 6.61343 11.1038 6.12909 11.3502L3.4907 12.6924L3.9519 9.76834C4.03656 9.23157 3.85951 8.68667 3.47551 8.30217L1.3837 6.20768L4.30712 5.74273C4.84379 5.65738 5.30731 5.32061 5.55432 4.83659L6.8999 2.19992ZM6.63269 1.67631L6.63287 1.67668C6.63281 1.67656 6.63275 1.67644 6.63269 1.67631L6.8999 1.53995L6.63269 1.67631ZM12.8315 5.79174L12.831 5.7922L12.8315 5.79174Z" stroke="#F4C050" stroke-width="2"/>
</svg>
